<svg viewBox="0 0 414 114" xmlns="http://www.w3.org/2000/svg" xmlns:xlink="http://www.w3.org/1999/xlink" stroke-linejoin="round" stroke-miterlimit="1.41421" fill-rule="evenodd" clip-rule="evenodd" overflow="hidden"><path d="M293.225 111.749C294.979 112.762 297.141 112.762 298.895 111.749 307.563 106.744 333.654 91.681 342.323 86.676 344.077 85.663 345.157 83.792 345.157 81.766 345.157 71.756 345.157 41.629 345.157 31.62 345.157 29.594 344.077 27.723 342.323 26.71 333.654 21.705 307.563 6.641 298.895 1.637 297.141 0.624 294.979 0.624 293.225 1.637 284.557 6.641 258.466 21.705 249.797 26.71 248.043 27.723 246.962 29.594 246.962 31.62 246.962 41.629 246.962 71.756 246.962 81.766 246.962 83.792 248.043 85.663 249.797 86.676 258.466 91.681 284.557 106.744 293.225 111.749Z" fill="#4A4A4A"/><path d="M293.225 103.269C294.979 104.282 297.141 104.282 298.895 103.269 306.512 98.871 327.362 86.834 334.979 82.436 336.733 81.423 337.814 79.552 337.814 77.526 337.814 68.73 337.814 44.655 337.814 35.86 337.814 33.834 336.733 31.963 334.979 30.95 327.362 26.552 306.512 14.514 298.895 10.117 297.141 9.104 294.979 9.104 293.225 10.117 285.608 14.514 264.758 26.552 257.141 30.95 255.387 31.963 254.306 33.834 254.306 35.86 254.306 44.655 254.306 68.73 254.306 77.526 254.306 79.552 255.387 81.423 257.141 82.436 264.758 86.834 285.608 98.871 293.225 103.269Z" fill="#C9D4CE"/><path d="M361.937 1.637C363.691 0.624 365.852 0.624 367.606 1.637 376.275 6.641 402.366 21.705 411.034 26.71 412.789 27.723 413.869 29.594 413.869 31.62 413.869 41.629 413.869 71.756 413.869 81.766 413.869 83.792 412.789 85.663 411.034 86.676 402.366 91.681 376.275 106.744 367.606 111.749 365.852 112.762 363.691 112.762 361.937 111.749 353.268 106.744 327.177 91.681 318.509 86.676 316.755 85.663 315.674 83.792 315.674 81.766 315.674 71.756 315.674 41.629 315.674 31.62 315.674 29.594 316.755 27.723 318.509 26.71 327.177 21.705 353.268 6.641 361.937 1.637Z" fill="#25543C"/><path d="M296.06 70.866C303.882 70.857 310.226 64.498 310.216 56.676 310.207 48.854 303.848 42.51 296.026 42.52 288.204 42.529 281.86 48.887 281.87 56.71 281.879 64.532 288.238 70.876 296.06 70.866Z" fill="#FFFFFF"/><path d="M296.038 66.614C301.514 66.608 305.954 62.157 305.947 56.681 305.941 51.205 301.49 46.765 296.014 46.772 290.538 46.778 286.098 51.229 286.105 56.705 286.111 62.18 290.562 66.621 296.038 66.614Z" fill="#25543C"/><path d="M340.265 44.634C346.914 44.642 352.306 50.046 352.298 56.695 352.29 63.345 346.885 68.736 340.236 68.728 333.587 68.72 328.195 63.316 328.203 56.667 328.211 50.018 333.616 44.626 340.265 44.634Z" fill="#FFFFFF"/><path d="M374.731 64.5C381.38 64.508 386.772 69.913 386.764 76.562 386.756 83.211 381.351 88.603 374.702 88.595 368.053 88.587 362.661 83.182 362.669 76.533 362.677 69.884 368.082 64.492 374.731 64.5Z" fill="#FFFFFF"/><path d="M374.695 24.791C381.344 24.799 386.736 30.204 386.728 36.853 386.72 43.502 381.316 48.894 374.667 48.886 368.017 48.878 362.626 43.473 362.634 36.824 362.642 30.175 368.046 24.783 374.695 24.791Z" fill="#FFFFFF"/><rect x="309.921" y="53.875" width="18.618" height="5.669" fill="#FFFFFF"/><path d="M363.134 40.246 349.002 48.405 351.837 53.315 365.969 45.156 363.134 40.246Z" fill="#FFFFFF"/><path d="M363.157 73.153 348.982 64.969 351.817 60.06 365.992 68.243 363.157 73.153Z" fill="#FFFFFF"/><g><g><path d="M0 14.868 5.852 14.868 5.852 17.301C6.979 16.076 7.942 15.247 8.739 14.814 9.589 14.364 10.655 14.138 11.938 14.138 14.8 14.138 17.062 15.436 18.727 18.031 20.565 15.436 23.053 14.138 26.192 14.138 31.897 14.138 34.749 17.734 34.749 24.925L34.749 41.199 28.871 41.199 28.871 26.574C28.871 24.051 28.576 22.266 27.986 21.221 27.38 20.158 26.383 19.626 24.995 19.626 23.383 19.626 22.208 20.257 21.471 21.519 20.734 22.78 20.366 24.808 20.366 27.601L20.366 41.199 14.487 41.199 14.487 26.655C14.487 21.969 13.187 19.626 10.586 19.626 8.939 19.626 7.738 20.266 6.984 21.546 6.229 22.825 5.852 24.844 5.852 27.601L5.852 41.199 0 41.199 0 14.868Z" fill="#4A4A4A" fill-rule="nonzero"/><path d="M65.206 29.466 47.052 29.466C47.208 31.629 47.884 33.35 49.08 34.63 50.277 35.891 51.811 36.522 53.684 36.522 55.141 36.522 56.346 36.162 57.299 35.441 58.236 34.72 59.302 33.386 60.499 31.44L65.441 34.305C64.678 35.657 63.871 36.815 63.022 37.779 62.172 38.743 61.262 39.536 60.291 40.158 59.32 40.78 58.271 41.235 57.143 41.523 56.016 41.811 54.794 41.956 53.476 41.956 49.696 41.956 46.661 40.694 44.373 38.171 42.084 35.63 40.939 32.26 40.939 28.061 40.939 23.897 42.049 20.527 44.269 17.95 46.505 15.409 49.471 14.138 53.164 14.138 56.892 14.138 59.84 15.373 62.007 17.842 64.157 20.293 65.232 23.69 65.232 28.034L65.206 29.466ZM59.198 24.492C58.383 21.248 56.415 19.626 53.294 19.626 52.583 19.626 51.915 19.739 51.291 19.964 50.667 20.189 50.099 20.514 49.588 20.937 49.076 21.361 48.638 21.87 48.274 22.465 47.91 23.059 47.633 23.735 47.442 24.492L59.198 24.492Z" fill="#4A4A4A" fill-rule="nonzero"/><path d="M78.107 14.138 78.107 41.199 72.255 41.199 72.255 14.138 69.425 14.138 69.425 8.461 72.255 8.461 72.255-1.77636e-15 78.107-1.77636e-15 78.107 8.461 83.457 8.461 83.457 14.138 78.107 14.138Z" fill="#4A4A4A" fill-rule="nonzero"/><path d="M111.66 41.199 105.782 41.199 105.782 38.441C103.371 40.784 100.779 41.956 98.005 41.956 94.502 41.956 91.606 40.64 89.317 38.009 87.046 35.324 85.91 31.971 85.91 27.952 85.91 24.006 87.046 20.717 89.317 18.085 91.589 15.454 94.433 14.138 97.849 14.138 100.796 14.138 103.441 15.4 105.782 17.923L105.782 14.868 111.66 14.868 111.66 41.199ZM91.658 27.952C91.658 30.476 92.309 32.53 93.609 34.116 94.944 35.72 96.626 36.522 98.655 36.522 100.822 36.522 102.574 35.747 103.909 34.197 105.244 32.593 105.912 30.557 105.912 28.088 105.912 25.619 105.244 23.582 103.909 21.978 102.574 20.41 100.84 19.626 98.707 19.626 96.696 19.626 95.014 20.419 93.661 22.005 92.326 23.609 91.658 25.592 91.658 27.952Z" fill="#4A4A4A"/><path d="M124.899 41.199 119.047 41.199 119.047 0 124.899 0 124.899 17.923C127.24 15.4 129.893 14.138 132.858 14.138 136.274 14.138 139.117 15.463 141.389 18.112 143.661 20.744 144.796 24.024 144.796 27.952 144.796 32.007 143.652 35.36 141.363 38.009 139.091 40.64 136.222 41.956 132.754 41.956 129.823 41.956 127.205 40.784 124.899 38.441L124.899 41.199ZM139.048 28.223C139.048 25.7 138.389 23.645 137.071 22.059 135.736 20.437 134.063 19.626 132.052 19.626 129.901 19.626 128.15 20.41 126.798 21.978 125.462 23.528 124.795 25.546 124.795 28.034 124.795 30.593 125.454 32.638 126.772 34.17 128.089 35.738 129.823 36.522 131.973 36.522 134.002 36.522 135.684 35.738 137.019 34.17 138.372 32.584 139.048 30.602 139.048 28.223Z" fill="#4A4A4A"/><path d="M149.79 27.844C149.79 24.042 151.099 20.807 153.718 18.139 156.336 15.472 159.526 14.138 163.289 14.138 167.069 14.138 170.277 15.481 172.913 18.166 175.514 20.852 176.814 24.15 176.814 28.061 176.814 32.007 175.505 35.314 172.887 37.982 170.251 40.631 167.017 41.956 163.185 41.956 159.388 41.956 156.206 40.604 153.64 37.901 151.073 35.233 149.79 31.881 149.79 27.844ZM155.772 27.952C155.772 30.584 156.449 32.665 157.801 34.197 159.188 35.747 161.018 36.522 163.289 36.522 165.578 36.522 167.407 35.756 168.777 34.224 170.147 32.692 170.832 30.647 170.832 28.088 170.832 25.528 170.147 23.483 168.777 21.951 167.39 20.401 165.561 19.626 163.289 19.626 161.052 19.626 159.24 20.401 157.853 21.951 156.466 23.501 155.772 25.501 155.772 27.952Z" fill="#4A4A4A" fill-rule="nonzero"/><rect x="183.005" y="0" width="5.852" height="41.199" fill="#4A4A4A" fill-rule="nonzero"/><rect x="196.27" y="14.868" width="5.852" height="26.33" fill="#4A4A4A"/><path d="M195.439 4.698C195.439 3.67 195.806 2.782 196.542 2.033 197.277 1.285 198.157 0.91 199.183 0.91 200.226 0.91 201.115 1.285 201.85 2.033 202.585 2.765 202.952 3.662 202.952 4.724 202.952 5.786 202.585 6.692 201.85 7.441 201.132 8.189 200.251 8.564 199.209 8.564 198.166 8.564 197.277 8.189 196.542 7.441 195.806 6.692 195.439 5.777 195.439 4.698Z" fill="#4A4A4A"/><path d="M229.25 16.004 229.25 24.087C227.915 22.393 226.718 21.23 225.661 20.599 224.62 19.951 223.398 19.626 221.993 19.626 219.791 19.626 217.962 20.428 216.505 22.032 215.049 23.636 214.32 25.646 214.32 28.061 214.32 30.53 215.023 32.557 216.427 34.143 217.849 35.729 219.661 36.522 221.863 36.522 223.268 36.522 224.508 36.207 225.583 35.576 226.623 34.963 227.845 33.774 229.25 32.007L229.25 40.036C226.874 41.316 224.499 41.956 222.123 41.956 218.204 41.956 214.927 40.64 212.292 38.009 209.656 35.36 208.338 32.07 208.338 28.142 208.338 24.213 209.673 20.897 212.344 18.193 215.014 15.49 218.291 14.138 222.175 14.138 224.672 14.138 227.03 14.76 229.25 16.004Z" fill="#4A4A4A" fill-rule="nonzero"/></g></g><g><path d="M41.28 99.658 16.108 99.658 9.558 112.376 0 112.376 29.094 56.723 57.16 112.376 47.449 112.376 41.28 99.658ZM37.662 92.231 28.942 74.426 19.802 92.231 37.662 92.231Z" fill="#25543C" fill-rule="nonzero"/><path d="M77.98 64.581 77.98 112.376 69.107 112.376 69.107 64.581 55.589 64.581 55.589 56.681 91.461 56.681 91.461 64.581 77.98 64.581Z" fill="#25543C" fill-rule="nonzero"/><path d="M108.255 56.681 108.255 104.476 125.544 104.476 125.544 112.376 99.382 112.376 99.382 56.681 108.255 56.681Z" fill="#25543C" fill-rule="nonzero"/><path d="M171.252 99.658 146.08 99.658 139.53 112.376 129.972 112.376 159.066 56.723 187.132 112.376 177.421 112.376 171.252 99.658ZM167.634 92.231 158.914 74.426 149.774 92.231 167.634 92.231Z" fill="#25543C" fill-rule="nonzero"/><path d="M227.727 65.919 220.529 69.88C219.184 67.711 217.902 66.296 216.683 65.636 215.414 64.881 213.776 64.504 211.771 64.504 209.308 64.504 207.264 65.153 205.639 66.449 204.015 67.723 203.202 69.326 203.202 71.26 203.202 73.924 205.335 76.07 209.6 77.697L215.464 79.926C220.237 81.718 223.728 83.905 225.937 86.487 228.146 89.069 229.25 92.234 229.25 95.984 229.25 101.006 227.447 105.156 223.842 108.434 220.212 111.735 215.706 113.386 210.323 113.386 205.221 113.386 201.006 111.983 197.68 109.177 194.405 106.371 192.362 102.421 191.549 97.328L200.537 95.488C200.943 98.695 201.654 100.912 202.669 102.138 204.497 104.496 207.163 105.675 210.666 105.675 213.433 105.675 215.731 104.814 217.559 103.093 219.387 101.372 220.301 99.191 220.301 96.55 220.301 95.488 220.142 94.516 219.825 93.632 219.507 92.747 219.012 91.934 218.34 91.191 217.667 90.448 216.797 89.753 215.731 89.104 214.665 88.456 213.395 87.837 211.923 87.247L206.249 85.054C198.201 81.894 194.177 77.273 194.177 71.189 194.177 67.086 195.865 63.655 199.242 60.896 202.618 58.114 206.82 56.723 211.847 56.723 218.625 56.723 223.919 59.788 227.727 65.919Z" fill="#25543C" fill-rule="nonzero"/></g></svg>